<svg xmlns="http://www.w3.org/2000/svg" version="1.1" xmlns:xlink="http://www.w3.org/1999/xlink" width="512" height="512" x="0" y="0" viewBox="0 0 68 68" style="enable-background:new 0 0 512 512" xml:space="preserve" class=""><g><path d="M48.126 49.71a1 1 0 0 0-1 1v11.227c0 .904-.736 1.64-1.641 1.64H5.64A1.643 1.643 0 0 1 4 61.937V6.063c0-.904.736-1.64 1.64-1.64h30.19v8.234c0 1.149.935 2.082 2.083 2.082h9.213v6.791a1 1 0 1 0 2 0v-7.79c0-.208-.114-.533-.316-.725-.101-.096-11.203-10.245-11.304-10.33v-.001h-.001a1.115 1.115 0 0 0-.673-.261H5.641A3.645 3.645 0 0 0 2 6.063v55.874a3.645 3.645 0 0 0 3.64 3.64h39.845a3.645 3.645 0 0 0 3.641-3.64V50.71a1 1 0 0 0-1-1zM37.913 12.74a.082.082 0 0 1-.082-.083V5.69l7.716 7.05z" fill="#000000" opacity="1" data-original="#000000" class=""></path><path d="M7.966 11.786h17.53a1 1 0 1 0 0-2H7.967a1 1 0 1 0 0 2zM43.477 20.071a1 1 0 0 0-1-1H7.967a1 1 0 1 0 0 2h34.51a1 1 0 0 0 1-1zM25.497 28.356H7.967a1 1 0 1 0 0 2h17.53a1 1 0 1 0 0-2zM7.966 39.642h17.53a1 1 0 1 0 0-2H7.967a1 1 0 1 0 0 2zM29.41 46.927H7.966a1 1 0 1 0 0 2H29.41a1 1 0 1 0 0-2zM6.966 57.212a1 1 0 0 0 1 1h34.511a1 1 0 1 0 0-2H7.967a1 1 0 0 0-1 1zM38.668 26.554c-4.466.95-7.474 4.806-7.694 9.008a1 1 0 0 0 .946 1.052l.053.001a1 1 0 0 0 .998-.947c.177-3.378 2.608-6.412 6.113-7.157a1 1 0 0 0-.416-1.957z" fill="#000000" opacity="1" data-original="#000000" class=""></path><path d="m64.315 48.755-1.946-1.55a1 1 0 0 0-1.246 1.564l1.946 1.55a2.465 2.465 0 0 1 .393 3.465 2.464 2.464 0 0 1-3.464.394l-6.801-5.415 3.072-3.859 1.503 1.198a.999.999 0 1 0 1.247-1.565l-2.287-1.82a1 1 0 0 0-1.405.159l-.12.15-1.839-1.464c2.473-5.71.856-12.302-4.062-16.207a13.755 13.755 0 0 0-11.46-2.66c-11.235 2.39-14.753 16.938-5.651 24.17 5.047 4.017 12.29 3.938 17.226-.076l1.708 1.36-.12.15a1 1 0 0 0 .16 1.405l7.582 6.038a4.464 4.464 0 0 0 6.276-.712 4.463 4.463 0 0 0-.712-6.275zM33.44 45.3c-7.8-6.198-4.731-18.616 4.829-20.65 3.52-.766 7.105.139 9.808 2.282a11.682 11.682 0 0 1 2.275 15.953l-.362.493c-5.255 5.687-12.03 5.519-16.55 1.922zm18.541-1.254.002-.003.002-.002.006-.009c.153-.216.3-.436.44-.66l1.529 1.217-1.586 1.993-1.484-1.182c.535-.584.853-1.017 1.091-1.354z" fill="#000000" opacity="1" data-original="#000000" class=""></path></g></svg>