<svg xmlns="http://www.w3.org/2000/svg" version="1.1" xmlns:xlink="http://www.w3.org/1999/xlink" width="512" height="512" x="0" y="0" viewBox="0 0 512 512" style="enable-background:new 0 0 512 512" xml:space="preserve" class=""><g><path d="M446.605 124.392 326.608 4.395A15.02 15.02 0 0 0 316 0H106C81.187 0 61 20.187 61 45v422c0 24.813 20.187 45 45 45h300c24.813 0 45-20.187 45-45V135c0-4.09-1.717-7.931-4.395-10.608zM331 51.213 399.787 120H346c-8.271 0-15-6.729-15-15zM406 482H106c-8.271 0-15-6.729-15-15V45c0-8.271 6.729-15 15-15h195v75c0 24.813 20.187 45 45 45h75v317c0 8.271-6.729 15-15 15z" fill="#000000" opacity="1" data-original="#000000" class=""></path><path d="M346 212H166c-8.284 0-15 6.716-15 15s6.716 15 15 15h180c8.284 0 15-6.716 15-15s-6.716-15-15-15zM346 272H166c-8.284 0-15 6.716-15 15s6.716 15 15 15h180c8.284 0 15-6.716 15-15s-6.716-15-15-15zM346 332H166c-8.284 0-15 6.716-15 15s6.716 15 15 15h180c8.284 0 15-6.716 15-15s-6.716-15-15-15zM286 392H166c-8.284 0-15 6.716-15 15s6.716 15 15 15h120c8.284 0 15-6.716 15-15s-6.716-15-15-15z" fill="#000000" opacity="1" data-original="#000000" class=""></path></g></svg>