<svg xmlns="http://www.w3.org/2000/svg" version="1.1" xmlns:xlink="http://www.w3.org/1999/xlink" width="512" height="512" x="0" y="0" viewBox="0 0 48 48" style="enable-background:new 0 0 512 512" xml:space="preserve" class=""><g><g data-name="11 - 20"><path d="m43.018 42.784-3.9-3.912a9.015 9.015 0 1 0-4.243 4.242l3.911 3.9a2.994 2.994 0 1 0 4.236-4.233zM26.05 39.95a7 7 0 1 1 9.9 0 7.007 7.007 0 0 1-9.9 0zM41.6 45.6a1 1 0 0 1-1.406 0l-3.581-3.573a8.489 8.489 0 0 0 1.414-1.413L41.6 44.2a.991.991 0 0 1 0 1.406z" fill="#000000" opacity="1" data-original="#000000" class=""></path><path d="M25 44H12a3 3 0 0 1-3-3V7a3 3 0 0 1 3-3h17.38a2.973 2.973 0 0 1 .62.067V10a3 3 0 0 0 3 3h5.923a3 3 0 0 1 .077.651V27a1 1 0 0 0 2 0V13.651a4.975 4.975 0 0 0-1.456-3.527l-6.62-6.651A4.965 4.965 0 0 0 29.38 2H12a5.006 5.006 0 0 0-5 5v34a5.006 5.006 0 0 0 5 5h13a1 1 0 0 0 0-2zm12.594-33H33a1 1 0 0 1-1-1V5.38z" fill="#000000" opacity="1" data-original="#000000" class=""></path><path d="M14 13h11a1 1 0 0 0 0-2H14a1 1 0 0 0 0 2zM34 17H17a1 1 0 0 0 0 2h17a1 1 0 0 0 0-2zM35 23a1 1 0 0 0-1-1H14a1 1 0 0 0 0 2h20a1 1 0 0 0 1-1zM21 28a1 1 0 0 0-1-1h-6a1 1 0 0 0 0 2h6a1 1 0 0 0 1-1zM14 34h4a1 1 0 0 0 0-2h-4a1 1 0 0 0 0 2zM14 39h5a1 1 0 0 0 0-2h-5a1 1 0 0 0 0 2zM31 38a3 3 0 0 1-3-3 1 1 0 0 0-2 0 5.006 5.006 0 0 0 5 5 1 1 0 0 0 0-2z" fill="#000000" opacity="1" data-original="#000000" class=""></path></g></g></svg>