<svg xmlns="http://www.w3.org/2000/svg" version="1.1" xmlns:xlink="http://www.w3.org/1999/xlink" width="512" height="512" x="0" y="0" viewBox="0 0 512 512" style="enable-background:new 0 0 512 512" xml:space="preserve" class=""><g><path d="M437.019 74.98A256.022 256.022 0 0 0 38.07 390.382L1.361 484.749a20 20 0 0 0 25.89 25.89l94.367-36.709a256.017 256.017 0 0 0 315.4-398.95zM256 472a214.87 214.87 0 0 1-120.9-36.978 20 20 0 0 0-18.46-2.076l-61.52 23.931 23.931-61.52a20 20 0 0 0-2.076-18.46A214.867 214.867 0 0 1 40 256c0-119.1 96.9-216 216-216s216 96.9 216 216-96.9 216-216 216zm138.7-298.963a20 20 0 0 0-18.72-1.907l-47.068 19.253c-.29-19.56-15.595-35.381-34.378-35.381h-151.7c-18.964 0-34.392 16.124-34.392 35.944v130.109c0 19.819 15.428 35.944 34.392 35.944h151.7c18.783 0 34.088-15.822 34.378-35.381l47.068 19.252a20 20 0 0 0 27.572-18.511V189.642a20 20 0 0 0-8.852-16.605zM288.928 317H148.447V195h140.481zm74.626-24.429-34.626-14.164v-44.813l34.626-14.163z" fill="#000000" opacity="1" data-original="#000000" class=""></path></g></svg>