<svg xmlns="http://www.w3.org/2000/svg" version="1.1" xmlns:xlink="http://www.w3.org/1999/xlink" width="48" height="65" x="0" y="0" viewBox="0 0 512 512" style="enable-background:new 0 0 512 512" xml:space="preserve" class=""><g><path d="M272 192h16.934a115.032 115.032 0 0 0 33.385-4.9l-4.638-15.313A99.062 99.062 0 0 1 288.934 176H272ZM272 124a12 12 0 1 0-12 12 12.013 12.013 0 0 0 12-12ZM332 136a12 12 0 1 0-12-12 12.013 12.013 0 0 0 12 12ZM136.015 495.53l7.999-136 15.972.94-7.999 136zM432.014 360.47l15.972-.94 8 136-15.973.94z" fill="#000000" opacity="1" data-original="#000000" class=""></path><path d="M56 208h8v88a24.027 24.027 0 0 0-24 24v168a8 8 0 0 0 8 8h64a8 8 0 0 0 8-8v-97.376A24.039 24.039 0 0 0 136 368v-44.144c.072-.075.151-.144.22-.222 5.1-5.746 12.927-9.617 20.36-11.176l19.42-4.085V496h16V368h40v128h16V368h40v128h16V368h40v128h16V368h40v128h16V308.349l19.458 4.117a39.887 39.887 0 0 1 31.692 35.665l12.88 148.56 15.94-1.382-12.88-148.566a55.806 55.806 0 0 0-44.315-49.93l-76.516-16.094-12.238-13.987a7.99 7.99 0 0 0-6.021-2.72V239.4a63.3 63.3 0 0 0 32-55.4v-8a31.989 31.989 0 0 0 16-59.7V64.188a35.042 35.042 0 0 0-44.562-33.723A36.686 36.686 0 0 0 318.08 16h-62.72a63.325 63.325 0 0 0-54.277 30.726A62.82 62.82 0 0 0 192 79.36v43.505A31.976 31.976 0 0 0 216 176v8a63.287 63.287 0 0 0 32 55.4v24.61a7.99 7.99 0 0 0-6.021 2.72l-12.239 13.99-76.5 16.091a54.872 54.872 0 0 0-20.51 8.932c-.314.217-.63.457-.945.686A23.99 23.99 0 0 0 112 296v-88h24a40 40 0 0 0 0-80H56a40.043 40.043 0 0 0-28.257 11.664l-.078.078A40.017 40.017 0 0 0 56 208Zm136 97.008 39.168-8.238 28.946 33.714-.017.015L278.576 352H192ZM280 248h32a63.608 63.608 0 0 0 16-2.037V268.9l-32 10.666-32-10.666v-22.94a63.543 63.543 0 0 0 16 2.04Zm24 90.4-8 9.316-1.352-1.573L288 338.4v-27.6l8-10 8 10Zm22.041-25.671-16.351-20.422-.276-.346 32.068-10.689 5.84 6.673Zm-43.455-20.77-.276.346-16.351 20.424-21.281-24.786 5.84-6.673ZM313.413 352l6.2-7.224L331.9 330.5l-.017-.015 28.948-33.716L400 304.977V352ZM376 160v-32h.024a16 16 0 0 1-.024 32Zm-3.2-106.375a18.976 18.976 0 0 1 3.2 10.563V112h-2.725L352 62.358V45.8a19.088 19.088 0 0 1 20.8 7.825Zm-158.039 1.4a48.012 48.012 0 0 1 17.243-16.854A47.065 47.065 0 0 1 255.36 32h62.72A21.085 21.085 0 0 1 336 42.042V56h-72a38.736 38.736 0 0 0-37.6 29.356l-4.333 17.492a21.805 21.805 0 0 1-4.28 8.519 6.073 6.073 0 0 0-.182.234c-.1.13-.208.264-.315.4H216a31.94 31.94 0 0 0-8 1.012V79.36a46.827 46.827 0 0 1 6.763-24.335ZM200 144a16.018 16.018 0 0 1 16-16v32a16.019 16.019 0 0 1-16-16Zm32 40v-64.971a37.438 37.438 0 0 0 5.6-12.385l4.314-17.414A22.748 22.748 0 0 1 264 72h74.725L360 121.641V184a47.525 47.525 0 0 1-27.482 43.358A46.749 46.749 0 0 1 312 232h-32a46.823 46.823 0 0 1-20.582-4.673A47.5 47.5 0 0 1 232 184ZM56 390.624A23.889 23.889 0 0 0 64 392h40v16H56ZM56 480v-56h48v56Zm64-160v48a8.009 8.009 0 0 1-8 8H64a8.009 8.009 0 0 1-8-8v-48a8.009 8.009 0 0 1 8-8h48a8.009 8.009 0 0 1 8 8Zm-40-24v-56h16v56Zm16-72H80v-16h16Zm64-56a24 24 0 1 1-24-24 24.028 24.028 0 0 1 24 24ZM39.017 151.018A24.132 24.132 0 0 1 56 144h48.022a39.912 39.912 0 0 0 0 48H56a24.017 24.017 0 0 1-16.983-40.982Z" fill="#000000" opacity="1" data-original="#000000" class=""></path></g></svg>