<svg xmlns="http://www.w3.org/2000/svg" version="1.1" xmlns:xlink="http://www.w3.org/1999/xlink" width="48" height="65" x="0" y="0" viewBox="0 0 1000 1000" style="enable-background:new 0 0 512 512" xml:space="preserve" class=""><g><circle cx="500" cy="218.76" r="118.76" fill="#000000" opacity="1" data-original="#000000" class=""></circle><path d="M643.1 354H579.75l-69.88 24.59a30.61 30.61 0 0 1-19.74 0L420.24 354H356.9c-57.64 0-104.39 50.44-104.39 112.64 0 55.19 36.77 101.1 85.31 110.77v259.14A65.91 65.91 0 0 0 355 881.42C365.69 892.9 380.37 900 396.61 900c32.47 0 58.79-28.4 58.79-63.45V693.66c0-9.65 7.25-17.47 16.17-17.47h56.86c8.92 0 16.17 7.82 16.17 17.47v142.89a65.86 65.86 0 0 0 17.22 44.87C572.46 892.9 587.15 900 603.39 900c32.46 0 58.79-28.4 58.79-63.45V577.37c48.53-9.67 85.31-55.58 85.31-110.77 0-62.2-46.75-112.6-104.39-112.6zm-44.21 261.75-48.51-6.14a11.69 11.69 0 0 1-9.79-8.45L505.05 474a5.25 5.25 0 0 0-10.11 0l-35.53 127.16a11.7 11.7 0 0 1-9.8 8.45l-48.51 6.14a11.68 11.68 0 0 1-12.47-15.54l56-156.15a7.5 7.5 0 0 0-9.46-9.63l-25.55 8.67a11.9 11.9 0 0 1-15.44-13.87l10.25-45.8 74.7 26.29a63.91 63.91 0 0 0 41.66 0l74.7-26.28 10.25 45.79a11.9 11.9 0 0 1-15.44 13.87l-25.55-8.67a7.49 7.49 0 0 0-9.46 9.63l56 156.15a11.69 11.69 0 0 1-12.4 15.54z" fill="#000000" opacity="1" data-original="#000000" class=""></path></g></svg>